<svg width="456.652" height="381.001" viewBox="0 0 120.823 100.806" xmlns="http://www.w3.org/2000/svg"><path style="fill:#2b2719;fill-opacity:1;stroke:#000;stroke-width:.264583px;stroke-linecap:butt;stroke-linejoin:miter;stroke-opacity:1" d="M124.318 135.997c8.977 3.572 11.969 14.092 11.969 14.092.724.361 2.443 19.292 15.443 16.216 13.12-3.105 10.038-23.937 10.038-23.937s-.29-12.837-3.957-32.914c-3.668-20.076-23.068-20.366-23.068-20.366l-66.624.133s-16.526 1.288-21.145 15.734-5.342 39.43-5.342 39.43-2.263 22.932 14.075 22.046c0 0 7.4 1.64 11.437-15.517 0 0 1.752-6.96 7.118-11.793 0 0 3.044-2.609 4.629-3.195 0 0 5.21 2.982 10.091.673 4.992-2.36 5.686-4.721 5.686-4.553h14.268s2.408 3.845 7.152 5.031 8.23-1.08 8.23-1.08z" transform="translate(-41.393 -65.968)"/><path style="fill:none;stroke:#6f7374;stroke-width:.264583px;stroke-linecap:butt;stroke-linejoin:miter;stroke-opacity:1" d="M79.714 136.27c-.514-.83-1.061-1.64-1.926-2.236m46.53 1.963c.433-.862.956-1.455 1.507-1.963" transform="translate(-41.393 -65.968)"/><g transform="translate(-41.393 -65.968)"><path style="fill:#9d927c;fill-opacity:1;stroke:#6f7374;stroke-width:.264583px;stroke-linecap:butt;stroke-linejoin:miter;stroke-opacity:1" d="M108.936 132.046c1.005-.381.428-1.66.428-1.66-2.606-6.212 1.943-11.375 1.943-11.375 7.557-6.569 13.606-1.265 13.606-1.265 9.338 8.643.912 16.288.912 16.288 8.122 3.778 15.983.26 15.983.26 16.461-6.732 14.16-22.976 14.16-22.976-2.13-20.37-21.828-20.51-21.828-20.51H70.638s-16.564-1.206-22.254 16.167c0 0-3.257 9.164 2.823 18.72s15.853 9.946 15.853 9.946 7.21.868 10.728-1.607c0 0-5.255-4.083-2.562-12.118 0 0 2.953-6.82 10.684-6.037 7.731.781 8.947 8.208 8.947 8.208s1 2.78-.564 6.82c0 0-.409.77.375 1.139z"/><ellipse style="display:inline;opacity:1;fill:#bfa96c;fill-opacity:1;fill-rule:evenodd;stroke:#bfa96c;stroke-width:.22;stroke-miterlimit:4;stroke-dasharray:none;stroke-opacity:1" cx="99.742" cy="120.646" rx=".459" ry=".453"/><ellipse style="display:inline;fill:#1c1c1c;fill-opacity:1;fill-rule:evenodd;stroke:#000;stroke-width:.22;stroke-miterlimit:4;stroke-dasharray:none;stroke-opacity:1" cx="101.795" cy="120.646" rx=".459" ry=".453"/><ellipse style="display:inline;fill:#1c1c1c;fill-opacity:1;fill-rule:evenodd;stroke:#000;stroke-width:.22;stroke-miterlimit:4;stroke-dasharray:none;stroke-opacity:1" cx="103.98" cy="120.645" rx=".459" ry=".453"/></g><g transform="translate(-41.393 -65.968)"><ellipse style="fill:#635838;fill-opacity:1;fill-rule:evenodd;stroke:#000;stroke-width:.218628;stroke-miterlimit:4;stroke-dasharray:none;stroke-opacity:1" cx="125.541" cy="107.798" rx="4.071" ry="4.018"/><ellipse style="fill:#635838;fill-opacity:1;fill-rule:evenodd;stroke:#000;stroke-width:.218628;stroke-miterlimit:4;stroke-dasharray:none;stroke-opacity:1" cx="144.385" cy="107.875" rx="4.071" ry="4.018"/><ellipse style="fill:#635838;fill-opacity:1;fill-rule:evenodd;stroke:#000;stroke-width:.218628;stroke-miterlimit:4;stroke-dasharray:none;stroke-opacity:1" cx="134.947" cy="116.12" rx="4.071" ry="4.018"/><ellipse style="display:inline;fill:#484b4a;fill-opacity:1;fill-rule:evenodd;stroke:#484b4a;stroke-width:.184673;stroke-miterlimit:4;stroke-dasharray:none;stroke-opacity:1" cx="134.88" cy="127.556" rx="3.456" ry="3.377"/><ellipse style="display:inline;fill:#bfa96c;fill-opacity:1;fill-rule:evenodd;stroke:#484b4a;stroke-width:.137573;stroke-miterlimit:4;stroke-dasharray:none;stroke-opacity:1" cx="134.883" cy="127.594" rx="2.558" ry="2.532"/><ellipse style="display:inline;fill:#bfa96c;fill-opacity:1;fill-rule:evenodd;stroke:#bfa96c;stroke-width:.137573;stroke-miterlimit:4;stroke-dasharray:none;stroke-opacity:1" cx="68.723" cy="127.409" rx="2.558" ry="2.532"/><ellipse style="display:inline;fill:#635838;fill-opacity:1;fill-rule:evenodd;stroke:#000;stroke-width:.218628;stroke-miterlimit:4;stroke-dasharray:none;stroke-opacity:1" cx="134.947" cy="99.626" rx="4.071" ry="4.018"/><text xml:space="preserve" style="font-style:normal;font-weight:400;font-size:4.14821px;line-height:1.25;font-family:sans-serif;fill:#635838;fill-opacity:1;stroke:none;stroke-width:.103706" x="130.094" y="104.549" transform="scale(.95549 1.04659)"><tspan style="fill:#bfa96c;fill-opacity:1;stroke-width:.103706" x="130.094" y="104.549">X</tspan></text><text xml:space="preserve" style="font-style:normal;font-weight:400;font-size:4.11002px;line-height:1.25;font-family:sans-serif;display:inline;fill:#ef7ded;fill-opacity:1;stroke:none;stroke-width:.102751" x="141.15" y="95.783" transform="scale(.9467 1.0563)"><tspan style="fill:#bfa96c;fill-opacity:1;stroke-width:.102751" x="141.15" y="95.783">Y</tspan></text><text xml:space="preserve" style="font-style:normal;font-weight:400;font-size:3.77679px;line-height:1.25;font-family:sans-serif;fill:#20b58c;fill-opacity:1;stroke:none;stroke-width:.0944201" x="161.188" y="97.233" transform="scale(.88845 1.12556)"><tspan style="fill:#bfa96c;fill-opacity:1;stroke-width:.0944201" x="161.188" y="97.233">B</tspan></text><text xml:space="preserve" style="font-style:normal;font-weight:400;font-size:3.96792px;line-height:1.25;font-family:sans-serif;fill:#fa5f58;fill-opacity:1;stroke:none;stroke-width:.0991993" x="146.177" y="107.579" transform="scale(.91396 1.09414)"><tspan style="fill:#bfa96c;fill-opacity:1;stroke-width:.0991993" x="146.177" y="107.579">A</tspan></text><path style="fill:#2b2719;fill-opacity:1;stroke:#000;stroke-width:.264583px;stroke-linecap:butt;stroke-linejoin:miter;stroke-opacity:.770161" d="M66.334 98.597h4.685s.735-.043.735.734v5.015s.01.596.628.596h4.834s.863-.02.863.863v4.419s.106.654-.655.654h-5s-.726.299-.726.727v5.092s.064.67-.67.67h-4.566s-.771-.213-.771-.771v-5.073s.064-.605-.605-.605h-5.119s-.547.076-.547-.948v-4.303s.064-.817.817-.817h4.82s.688.092.688-.397v-5.239s.227-.617.59-.617z"/><ellipse style="opacity:1;fill:#635838;fill-opacity:1;fill-rule:evenodd;stroke:#9d8b59;stroke-width:.251382;stroke-miterlimit:4;stroke-dasharray:none;stroke-opacity:1" cx="68.762" cy="107.956" rx="2.22" ry="2.231"/><path style="display:inline;fill:#9d8b59;fill-opacity:1;stroke:#635838;stroke-width:.264583px;stroke-linecap:butt;stroke-linejoin:miter;stroke-opacity:1" d="M100.294 123.945h2.893s1.044 0 1.226 1.225-.578 1.581-.924 1.6c-1.429.072-2.49.176-3.21 0-.518-.128-1.06-.406-1.044-1.213.016-.806.303-1.41 1.06-1.612z"/><path style="display:inline;opacity:1;fill:#9d8b59;fill-opacity:1;fill-rule:evenodd;stroke:#635838;stroke-width:.831496;stroke-miterlimit:4;stroke-dasharray:none;stroke-opacity:1" d="m253.824 380.92 6.98-12.123 7.008 12.106z" transform="translate(-.195 2.239)scale(.26458)"/><path style="display:inline;opacity:1;fill:#9d8b59;fill-opacity:1;fill-rule:evenodd;stroke:#635838;stroke-width:.831496;stroke-miterlimit:4;stroke-dasharray:none;stroke-opacity:1" transform="matrix(.26458 0 0 -.26458 -.245 213.386)" d="m253.824 380.92 6.98-12.123 7.008 12.106z"/><path style="display:inline;opacity:1;fill:#9d8b59;fill-opacity:1;fill-rule:evenodd;stroke:#635838;stroke-width:.831496;stroke-miterlimit:4;stroke-dasharray:none;stroke-opacity:1" transform="rotate(90 67.617 106.505)scale(.26458)" d="m253.824 380.92 6.98-12.123 7.008 12.106z"/><path style="display:inline;opacity:1;fill:#9d8b59;fill-opacity:1;fill-rule:evenodd;stroke:#635838;stroke-width:.831496;stroke-miterlimit:4;stroke-dasharray:none;stroke-opacity:1" transform="rotate(-90 70.079 106.822)scale(.26458)" d="m253.824 380.92 6.98-12.123 7.008 12.106z"/><path style="display:inline;opacity:1;fill:#2b2719;fill-opacity:1;fill-rule:evenodd;stroke:#878787;stroke-width:.831496;stroke-miterlimit:4;stroke-dasharray:none;stroke-opacity:1" d="m257.464 480.94-3.875-1.959-3.81 2.083.665-4.29-3.158-2.98 4.286-.694 1.858-3.925 1.984 3.862 4.306.555-3.059 3.08z" transform="matrix(.25914 0 0 .26554 3.015 1.21)"/></g><g transform="translate(-41.393 -65.968)"><ellipse style="fill:#000;fill-opacity:1;fill-rule:evenodd;stroke:#000;stroke-width:.321894;stroke-miterlimit:4;stroke-dasharray:none;stroke-opacity:1" cx="118.846" cy="125.375" rx="7.502" ry="7.553"/><ellipse style="fill:#000;fill-opacity:1;fill-rule:evenodd;stroke:#000;stroke-width:.321894;stroke-miterlimit:4;stroke-dasharray:none;stroke-opacity:1" cx="84.833" cy="125.339" rx="7.502" ry="7.553"/></g><g transform="translate(-41.393 -65.968)"><ellipse style="opacity:1;fill:#2b2d2c;fill-opacity:1;fill-rule:evenodd;stroke:#494b4a;stroke-width:.196709;stroke-miterlimit:4;stroke-dasharray:none;stroke-opacity:1" cx="84.743" cy="125.193" rx="4.574" ry="4.626"/><ellipse style="fill:#2b2d2c;fill-opacity:1;fill-rule:evenodd;stroke:#494b4a;stroke-width:.196709;stroke-miterlimit:4;stroke-dasharray:none;stroke-opacity:1" cx="118.924" cy="125.186" rx="4.574" ry="4.626"/></g><path style="fill:#403924;fill-opacity:1;stroke:#403924;stroke-width:.264583px;stroke-linecap:butt;stroke-linejoin:miter;stroke-opacity:1" d="M93.05 103.456h17.142s3.379-.067 3.781 4.05c0 0-.089 3.58-3.67 3.782 0 0-12.278.174-17.343 0-1.618-.056-3.082-.81-3.379-3.491-.033-.302.107-4.341 3.469-4.341z" transform="translate(-41.393 -65.968)"/><path style="fill:#635838;fill-opacity:1;stroke:#585a5c;stroke-width:.230252px;stroke-linecap:butt;stroke-linejoin:miter;stroke-opacity:1" d="M93.839 104.074h15.69s3.093-.056 3.462 3.352c0 0-.081 2.962-3.36 3.129 0 0-11.238.144-15.874 0-1.482-.046-2.822-.67-3.093-2.889-.03-.25.098-3.592 3.175-3.592z" transform="translate(-41.393 -65.968)"/><path style="fill:#9d8b59;fill-opacity:1;stroke:#635838;stroke-width:.098103px;stroke-linecap:butt;stroke-linejoin:miter;stroke-opacity:1" d="M93.216 105.913h6.155s1.213-.026 1.358 1.55c0 0-.032 1.372-1.318 1.449h-6.228s-1.005-.06-1.213-1.337c0-.005.071-1.662 1.246-1.662zm10.94.042h6.155s1.213-.026 1.358 1.55c0 0-.032 1.372-1.318 1.449h-6.228s-1.005-.06-1.213-1.337c0-.005.071-1.662 1.246-1.662z" transform="translate(-41.393 -65.968)"/><g style="display:inline"><path style="display:inline;fill:#000;fill-opacity:.995951;fill-rule:evenodd;stroke:#000;stroke-width:.182376;stroke-miterlimit:4;stroke-dasharray:none;stroke-opacity:1" d="M133.006 127.1h.628v.615h-.628z" transform="translate(-41.393 -65.968)"/><path style="display:inline;fill:#000500;fill-opacity:.995951;fill-rule:evenodd;stroke:#000;stroke-width:.182376;stroke-miterlimit:4;stroke-dasharray:none;stroke-opacity:1" d="M135.436 126.303h.628v.615h-.628z" transform="translate(-41.393 -65.968)"/><path style="opacity:1;fill:#000;fill-opacity:.995951;fill-rule:evenodd;stroke:#000;stroke-width:.182376;stroke-miterlimit:4;stroke-dasharray:none;stroke-opacity:1" d="M133.816 126.303h.628v.615h-.628z" transform="translate(-41.393 -65.968)"/><path style="display:inline;fill:#000;fill-opacity:.995951;fill-rule:evenodd;stroke:#000;stroke-width:.182376;stroke-miterlimit:4;stroke-dasharray:none;stroke-opacity:1" d="M134.626 127.1h.628v.615h-.628zm-.81.799h.628v.615h-.628zm1.62 0h.628v.615h-.628zm-.81.797h.628v.615h-.628zm1.62-1.596h.628v.615h-.628z" transform="translate(-41.393 -65.968)"/></g><g transform="translate(-41.393 -65.968)"/><g style="fill:#8e9192;fill-opacity:1;stroke:#9d8b59;stroke-opacity:1"><path style="fill:#9d8b59;fill-opacity:1;stroke:#635838;stroke-width:.264583px;stroke-linecap:butt;stroke-linejoin:miter;stroke-opacity:1" d="M121.888 89.089c4.532.017 9.064.001 13.595.039 3.905.408 7.801 1.527 11.284 3.632-.15-.013.146-1.335-.132-1.504-4.189-2.549-7.251-3.16-11.156-3.478l-13.19.026c-.554.152-.417.691-.428 1.116.02.033-.038.202.027.169z" transform="translate(-41.393 -65.968)"/><path style="fill:#8e9192;fill-opacity:1;stroke:#4b4f52;stroke-width:.264583px;stroke-linecap:butt;stroke-linejoin:miter;stroke-opacity:1" d="M121.861 88.92c.038.034-.006.082.006.12l.02.049" transform="translate(-41.393 -65.968)"/></g><g style="fill:#8e9192;fill-opacity:1;stroke:#4b4f52;stroke-opacity:1"><path style="fill:#9d8b59;fill-opacity:1;stroke:#635838;stroke-width:.26612px;stroke-linecap:butt;stroke-linejoin:miter;stroke-opacity:1" d="M81.713 89.108c-4.495.018-8.991.002-13.485.04-3.873.417-7.738 1.558-11.192 3.705.149-.013-.146-1.362.13-1.534 4.155-2.6 7.193-3.222 11.066-3.548l13.083.028c.55.155.413.704.424 1.138-.02.033.038.206-.026.171z" transform="translate(-41.393 -65.968)"/><path style="fill:#8e9192;fill-opacity:1;stroke:#4b4f52;stroke-width:.26612px;stroke-linecap:butt;stroke-linejoin:miter;stroke-opacity:1" d="M81.74 88.937c-.038.034.005.083-.007.122l-.02.05" transform="translate(-41.393 -65.968)"/></g><path style="fill:#9d8b59;fill-opacity:1;stroke:#635838;stroke-width:.264583px;stroke-linecap:butt;stroke-linejoin:miter;stroke-opacity:1" d="M59.217 84.186h20.019s.943-.295.943-1.634-2.727-16.55-10.06-16.452c-7.334.1-11.397 9.762-11.397 9.762s-4.157 8.741.495 8.324z" transform="translate(-41.393 -65.968)"/><path style="display:inline;fill:#9d8b59;fill-opacity:1;stroke:#635838;stroke-width:.264583px;stroke-linecap:butt;stroke-linejoin:miter;stroke-opacity:1" d="M144.487 84.187h-20.019s-.943-.295-.943-1.634c0-1.34 2.727-16.551 10.06-16.452s11.397 9.761 11.397 9.761 4.157 8.742-.495 8.325z" transform="translate(-41.393 -65.968)"/></svg>