<svg width="150.277" height="71.542" viewBox="0 0 39.761 18.929" xmlns="http://www.w3.org/2000/svg"><defs><clipPath clipPathUnits="userSpaceOnUse" id="a"><path style="fill:#235179;fill-opacity:0;fill-rule:evenodd;stroke:#00ff01;stroke-opacity:1" d="m399.08 601.945-26.493-45.887h52.986z" transform="matrix(.4381 0 0 .26458 -61.247 4.509)"/></clipPath><clipPath clipPathUnits="userSpaceOnUse" id="b"><path style="fill:#235179;fill-opacity:0;fill-rule:evenodd;stroke:#00ff01;stroke-opacity:1" transform="matrix(.4381 0 0 .26458 -61.247 4.509)" d="m399.08 601.945-26.493-45.887h52.986z"/></clipPath><clipPath clipPathUnits="userSpaceOnUse" id="c"><path style="fill:#235179;fill-opacity:0;fill-rule:evenodd;stroke:#00ff01;stroke-opacity:1" transform="matrix(.4381 0 0 .26458 -61.247 4.509)" d="m399.08 601.945-26.493-45.887h52.986z"/></clipPath><clipPath clipPathUnits="userSpaceOnUse" id="d"><path style="fill:#235179;fill-opacity:0;fill-rule:evenodd;stroke:#00ff01;stroke-opacity:1" transform="matrix(.4381 0 0 .26458 -61.247 4.509)" d="m399.08 601.945-26.493-45.887h52.986z"/></clipPath></defs><g clip-path="url(#a)" transform="translate(-106.776 -149.224)"><path style="fill:#fdfdfd;fill-opacity:1;stroke:#fff;stroke-width:.264583px;stroke-linecap:butt;stroke-linejoin:miter;stroke-opacity:.770161" d="M111.178 154.192h4.685s.734-.042.734.735v5.015s.01.596.629.596h4.834s.862-.021.862.863v4.418s.106.655-.655.655h-4.999s-.727.298-.727.727v5.092s.064.67-.669.67h-4.567s-.77-.213-.77-.772v-5.073s.063-.604-.605-.604h-5.12s-.547.076-.547-.948v-4.304s.064-.816.817-.816h4.82s.688.092.688-.398v-5.238s.228-.618.59-.618z"/><ellipse style="fill:#fdfdfd;fill-opacity:1;fill-rule:evenodd;stroke:#b4b0ad;stroke-width:.251382;stroke-miterlimit:4;stroke-dasharray:none;stroke-opacity:1" cx="113.605" cy="163.551" rx="2.22" ry="2.231"/><path style="display:inline;opacity:1;fill:#9d8b59;fill-opacity:1;fill-rule:evenodd;stroke:#635838;stroke-width:.831496;stroke-miterlimit:4;stroke-dasharray:none;stroke-opacity:1" transform="translate(44.649 57.834)scale(.26458)" d="m253.824 380.92 6.98-12.123 7.008 12.106z"/><path style="display:inline;opacity:1;fill:#9c9b96;fill-opacity:1;fill-rule:evenodd;stroke:#b4b0ad;stroke-width:.831496;stroke-miterlimit:4;stroke-dasharray:none;stroke-opacity:1" transform="matrix(.26458 0 0 -.26458 44.599 268.981)" d="m253.824 380.92 6.98-12.123 7.008 12.106z"/><path style="display:inline;opacity:1;fill:#9d8b59;fill-opacity:1;fill-rule:evenodd;stroke:#635838;stroke-width:.831496;stroke-miterlimit:4;stroke-dasharray:none;stroke-opacity:1" transform="rotate(90 62.241 156.724)scale(.26458)" d="m253.824 380.92 6.98-12.123 7.008 12.106z"/><path style="display:inline;opacity:1;fill:#9c9b96;fill-opacity:1;fill-rule:evenodd;stroke:#b4b0ad;stroke-width:.831496;stroke-miterlimit:4;stroke-dasharray:none;stroke-opacity:1" transform="matrix(0 -.26458 .26458 0 8.1 232.497)" d="m253.824 380.92 6.98-12.123 7.008 12.106z"/></g><g clip-path="url(#b)" transform="matrix(1 0 0 -1 -99.778 168.609)"><path style="fill:#fdfdfd;fill-opacity:1;stroke:#fff;stroke-width:.264583px;stroke-linecap:butt;stroke-linejoin:miter;stroke-opacity:.770161" d="M111.178 154.192h4.685s.734-.042.734.735v5.015s.01.596.629.596h4.834s.862-.021.862.863v4.418s.106.655-.655.655h-4.999s-.727.298-.727.727v5.092s.064.67-.669.67h-4.567s-.77-.213-.77-.772v-5.073s.063-.604-.605-.604h-5.12s-.547.076-.547-.948v-4.304s.064-.816.817-.816h4.82s.688.092.688-.398v-5.238s.228-.618.59-.618z"/><ellipse style="fill:#fdfdfd;fill-opacity:1;fill-rule:evenodd;stroke:#b4b0ad;stroke-width:.251382;stroke-miterlimit:4;stroke-dasharray:none;stroke-opacity:1" cx="113.605" cy="163.551" rx="2.22" ry="2.231"/><path style="display:inline;opacity:1;fill:#9d8b59;fill-opacity:1;fill-rule:evenodd;stroke:#635838;stroke-width:.831496;stroke-miterlimit:4;stroke-dasharray:none;stroke-opacity:1" transform="translate(44.649 57.834)scale(.26458)" d="m253.824 380.92 6.98-12.123 7.008 12.106z"/><path style="display:inline;opacity:1;fill:#9c9b96;fill-opacity:1;fill-rule:evenodd;stroke:#b4b0ad;stroke-width:.831496;stroke-miterlimit:4;stroke-dasharray:none;stroke-opacity:1" transform="matrix(.26458 0 0 -.26458 44.599 268.981)" d="m253.824 380.92 6.98-12.123 7.008 12.106z"/><path style="display:inline;opacity:1;fill:#9c9b96;fill-opacity:1;fill-rule:evenodd;stroke:#b4b0ad;stroke-width:.831496;stroke-miterlimit:4;stroke-dasharray:none;stroke-opacity:1" transform="rotate(90 62.241 156.724)scale(.26458)" d="m253.824 380.92 6.98-12.123 7.008 12.106z"/><path style="display:inline;opacity:1;fill:#9c9b96;fill-opacity:1;fill-rule:evenodd;stroke:#b4b0ad;stroke-width:.831496;stroke-miterlimit:4;stroke-dasharray:none;stroke-opacity:1" transform="matrix(0 -.26458 .26458 0 8.1 232.497)" d="m253.824 380.92 6.98-12.123 7.008 12.106z"/></g><g clip-path="url(#c)" transform="matrix(0 1 1 0 -136.657 -104.131)"><path style="fill:#fdfdfd;fill-opacity:1;stroke:#fff;stroke-width:.264583px;stroke-linecap:butt;stroke-linejoin:miter;stroke-opacity:.770161" d="M111.178 154.192h4.685s.734-.042.734.735v5.015s.01.596.629.596h4.834s.862-.021.862.863v4.418s.106.655-.655.655h-4.999s-.727.298-.727.727v5.092s.064.67-.669.67h-4.567s-.77-.213-.77-.772v-5.073s.063-.604-.605-.604h-5.12s-.547.076-.547-.948v-4.304s.064-.816.817-.816h4.82s.688.092.688-.398v-5.238s.228-.618.59-.618z"/><ellipse style="fill:#fdfdfd;fill-opacity:1;fill-rule:evenodd;stroke:#b4b0ad;stroke-width:.251382;stroke-miterlimit:4;stroke-dasharray:none;stroke-opacity:1" cx="113.605" cy="163.551" rx="2.22" ry="2.231"/><path style="display:inline;opacity:1;fill:#9d8b59;fill-opacity:1;fill-rule:evenodd;stroke:#635838;stroke-width:.831496;stroke-miterlimit:4;stroke-dasharray:none;stroke-opacity:1" transform="translate(44.649 57.834)scale(.26458)" d="m253.824 380.92 6.98-12.123 7.008 12.106z"/><path style="display:inline;opacity:1;fill:#9c9b96;fill-opacity:1;fill-rule:evenodd;stroke:#b4b0ad;stroke-width:.831496;stroke-miterlimit:4;stroke-dasharray:none;stroke-opacity:1" transform="matrix(.26458 0 0 -.26458 44.599 268.981)" d="m253.824 380.92 6.98-12.123 7.008 12.106z"/><path style="display:inline;opacity:1;fill:#9c9b96;fill-opacity:1;fill-rule:evenodd;stroke:#b4b0ad;stroke-width:.831496;stroke-miterlimit:4;stroke-dasharray:none;stroke-opacity:1" transform="rotate(90 62.241 156.724)scale(.26458)" d="m253.824 380.92 6.98-12.123 7.008 12.106z"/><path style="display:inline;opacity:1;fill:#9c9b96;fill-opacity:1;fill-rule:evenodd;stroke:#b4b0ad;stroke-width:.831496;stroke-miterlimit:4;stroke-dasharray:none;stroke-opacity:1" transform="matrix(0 -.26458 .26458 0 8.1 232.497)" d="m253.824 380.92 6.98-12.123 7.008 12.106z"/></g><g clip-path="url(#d)" transform="rotate(90 147.653 43.523)"><path style="fill:#fdfdfd;fill-opacity:1;stroke:#fff;stroke-width:.264583px;stroke-linecap:butt;stroke-linejoin:miter;stroke-opacity:.770161" d="M111.178 154.192h4.685s.734-.042.734.735v5.015s.01.596.629.596h4.834s.862-.021.862.863v4.418s.106.655-.655.655h-4.999s-.727.298-.727.727v5.092s.064.67-.669.67h-4.567s-.77-.213-.77-.772v-5.073s.063-.604-.605-.604h-5.12s-.547.076-.547-.948v-4.304s.064-.816.817-.816h4.82s.688.092.688-.398v-5.238s.228-.618.59-.618z"/><ellipse style="fill:#fdfdfd;fill-opacity:1;fill-rule:evenodd;stroke:#b4b0ad;stroke-width:.251382;stroke-miterlimit:4;stroke-dasharray:none;stroke-opacity:1" cx="113.605" cy="163.551" rx="2.22" ry="2.231"/><path style="display:inline;opacity:1;fill:#9d8b59;fill-opacity:1;fill-rule:evenodd;stroke:#635838;stroke-width:.831496;stroke-miterlimit:4;stroke-dasharray:none;stroke-opacity:1" transform="translate(44.649 57.834)scale(.26458)" d="m253.824 380.92 6.98-12.123 7.008 12.106z"/><path style="display:inline;opacity:1;fill:#9c9b96;fill-opacity:1;fill-rule:evenodd;stroke:#b4b0ad;stroke-width:.831496;stroke-miterlimit:4;stroke-dasharray:none;stroke-opacity:1" transform="matrix(.26458 0 0 -.26458 44.599 268.981)" d="m253.824 380.92 6.98-12.123 7.008 12.106z"/><path style="display:inline;opacity:1;fill:#9c9b96;fill-opacity:1;fill-rule:evenodd;stroke:#b4b0ad;stroke-width:.831496;stroke-miterlimit:4;stroke-dasharray:none;stroke-opacity:1" transform="rotate(90 62.241 156.724)scale(.26458)" d="m253.824 380.92 6.98-12.123 7.008 12.106z"/><path style="display:inline;opacity:1;fill:#9c9b96;fill-opacity:1;fill-rule:evenodd;stroke:#b4b0ad;stroke-width:.831496;stroke-miterlimit:4;stroke-dasharray:none;stroke-opacity:1" transform="matrix(0 -.26458 .26458 0 8.1 232.497)" d="m253.824 380.92 6.98-12.123 7.008 12.106z"/></g></svg>